# xmcd
#
# Track frame offsets: 
#        150
#        15463
#        27175
#        46398
#        65213
#        78965
#        94360
#        110363
#        124378
#        143750
#
# Disc length: 2125 seconds
#
# Revision: 14
# Processed by: cddbd v1.5.2PL0 Copyright (c) Steve Scherf et al.
# Submitted via: ExactAudioCopy v0.95b4
#
DISCID=85084b0a
DTITLE=Blues Brothers - Best of the Blues Brothers
DYEAR=1981
DGENRE=Blues
TTITLE0=Expressway to your heart
TTITLE1=Everybody needs somebody to love
TTITLE2=I don't know
TTITLE3=She caught the katy
TTITLE4=Soul man
TTITLE5=Rubber biscuit
TTITLE6=Going back to Miami
TTITLE7=Gimme some lovin'
TTITLE8=''B'' Movie box car blues
TTITLE9=Flip, flop and fly
EXTD=YEAR: 1981
EXTT0=
EXTT1=
EXTT2=
EXTT3=
EXTT4=
EXTT5=
EXTT6=
EXTT7=
EXTT8=
EXTT9=
PLAYORDER=
